<svg width="69" height="41" viewBox="0 0 69 41" fill="none" xmlns="http://www.w3.org/2000/svg">
<mask id="mask0_325_4" style="mask-type:alpha" maskUnits="userSpaceOnUse" x="7" y="24" width="26" height="17">
<path d="M17.6106 24.6965L32.8808 40.2393H7.39062L17.6106 24.6965Z" fill="white"/>
</mask>
<g mask="url(#mask0_325_4)">
<path fill-rule="evenodd" clip-rule="evenodd" d="M4.58252 43.0474H35.6889V21.8884H4.58252V43.0474Z" fill="#0D99FF"/>
</g>
<path fill-rule="evenodd" clip-rule="evenodd" d="M7.39062 40.2393H32.8808L17.6106 24.6965L7.39062 40.2393Z" stroke="#0D99FF" stroke-width="0.5535" stroke-linejoin="round"/>
<mask id="mask1_325_4" style="mask-type:alpha" maskUnits="userSpaceOnUse" x="35" y="24" width="27" height="17">
<path d="M51.3211 24.6965L61.7903 40.2393H35.6785L51.3211 24.6965Z" fill="white"/>
</mask>
<g mask="url(#mask1_325_4)">
<path fill-rule="evenodd" clip-rule="evenodd" d="M32.8704 43.0474H64.5984V21.8884H32.8704V43.0474Z" fill="#0D99FF"/>
</g>
<path fill-rule="evenodd" clip-rule="evenodd" d="M61.7903 40.2393H35.6785L51.3211 24.6965L61.7903 40.2393Z" stroke="#0D99FF" stroke-width="0.5535" stroke-linejoin="round"/>
<mask id="mask2_325_4" style="mask-type:alpha" maskUnits="userSpaceOnUse" x="22" y="7" width="25" height="33">
<path d="M34.4832 7.39459C35.3302 8.20377 35.9252 8.79493 36.2683 9.16813C37.4602 10.4648 38.2645 11.5375 38.7926 12.2461C40.5645 14.624 41.7435 16.8217 42.5673 18.27C43.9183 20.6452 45.1786 23.9729 46.348 28.2533L34.8243 39.8334H34.1242L22.6184 28.2533C23.6969 24.1368 24.9582 20.8091 26.4024 18.27C27.3163 16.6635 28.3546 14.7224 30.2746 12.2461C30.8085 11.5575 31.5859 10.4779 32.8016 9.10848C32.9999 8.88513 33.2932 8.57822 33.6816 8.18774L33.926 7.94341C34.0965 7.77385 34.2823 7.59091 34.4832 7.39459Z" fill="white"/>
</mask>
<g mask="url(#mask2_325_4)">
<path fill-rule="evenodd" clip-rule="evenodd" d="M19.8103 42.6414H49.1561V4.58643H19.8103V42.6414Z" fill="#0D99FF"/>
</g>
<mask id="mask3_325_4" style="mask-type:alpha" maskUnits="userSpaceOnUse" x="42" y="7" width="21" height="33">
<path d="M48.7342 7.39459C50.6195 9.37705 51.9872 10.9457 52.8374 12.1006C55.101 15.1754 57.0679 18.7497 58.518 22.1873C60.7849 27.5616 61.9881 33.2146 62.1276 39.1463L51.2149 23.2451L47.2428 27.1496C46.3212 24.4533 45.5777 22.4595 45.012 21.1682C44.4463 19.8768 43.5042 18.0225 42.1855 15.6053C43.337 13.6909 44.2791 12.2744 45.012 11.3555C45.7449 10.4367 46.9856 9.11635 48.7342 7.39459Z" fill="white"/>
</mask>
<g mask="url(#mask3_325_4)">
<path fill-rule="evenodd" clip-rule="evenodd" d="M39.3777 41.9543H64.9359V4.58643H39.3777V41.9543Z" fill="#0D99FF"/>
</g>
<path fill-rule="evenodd" clip-rule="evenodd" d="M42.1855 15.6053C43.5041 18.0225 44.4463 19.8768 45.012 21.1681C45.5776 22.4594 46.3212 24.4533 47.2427 27.1496L51.2148 23.2451L62.1276 39.1463C61.9881 33.2145 60.7849 27.5615 58.5179 22.1873C57.0679 18.7497 55.101 15.1753 52.8374 12.1006C51.9872 10.9457 50.6195 9.377 48.7342 7.39453C46.9856 9.11629 45.7448 10.4366 45.012 11.3555C44.2791 12.2743 43.337 13.6909 42.1855 15.6053Z" stroke="#0D99FF" stroke-width="0.5" stroke-linejoin="round"/>
<mask id="mask4_325_4" style="mask-type:alpha" maskUnits="userSpaceOnUse" x="6" y="7" width="21" height="33">
<path d="M20.1617 7.28864C21.9103 9.01039 23.151 10.3307 23.8838 11.2496C24.6167 12.1684 25.5588 13.585 26.7102 15.4994C25.3916 17.9166 24.4495 19.7709 23.8838 21.0622C23.3182 22.3535 22.5746 24.3474 21.6531 27.0437L17.6812 23.1392L6.7688 39.0404C6.90825 33.1087 8.1114 27.4557 10.3783 22.0814C11.8282 18.6438 13.7951 15.0695 16.0586 11.9947C16.9088 10.8398 18.2765 9.27115 20.1617 7.28864Z" fill="white"/>
</mask>
<g mask="url(#mask4_325_4)">
<path fill-rule="evenodd" clip-rule="evenodd" d="M3.96069 41.8485H29.5183V4.48059H3.96069V41.8485Z" fill="#0D99FF"/>
</g>
<path fill-rule="evenodd" clip-rule="evenodd" d="M26.7102 15.4994C25.3917 17.9166 24.4495 19.7709 23.8839 21.0622C23.3182 22.3535 22.5746 24.3474 21.6531 27.0437L17.6812 23.1392L6.7688 39.0404C6.90825 33.1087 8.11141 27.4556 10.3783 22.0814C11.8283 18.6438 13.7951 15.0694 16.0586 11.9947C16.9088 10.8398 18.2765 9.27111 20.1617 7.28864C21.9103 9.01039 23.151 10.3307 23.8839 11.2496C24.6167 12.1684 25.5588 13.585 26.7102 15.4994Z" stroke="#0D99FF" stroke-width="0.5" stroke-linejoin="round"/>
<mask id="mask5_325_4" style="mask-type:alpha" maskUnits="userSpaceOnUse" x="60" y="24" width="9" height="16">
<path d="M60.8577 24.6965C62.4367 25.2639 63.6437 25.7316 64.4788 26.0997C65.3138 26.4677 66.5209 27.064 68.0999 27.8886C67.9218 29.6805 67.4732 31.4189 66.7543 33.1036C66.0354 34.7884 64.785 37.0316 63.003 39.8333C63.0961 36.5044 63.021 33.9817 62.7777 32.265C62.5343 30.5482 61.8943 28.0254 60.8577 24.6965Z" fill="white"/>
</mask>
<g mask="url(#mask5_325_4)">
<path fill-rule="evenodd" clip-rule="evenodd" d="M58.0496 42.6414H70.908V21.8884H58.0496V42.6414Z" fill="#0D99FF"/>
</g>
<path fill-rule="evenodd" clip-rule="evenodd" d="M63.003 39.8333C63.0961 36.5044 63.021 33.9816 62.7777 32.2649C62.5344 30.5482 61.8944 28.0254 60.8577 24.6965C62.4367 25.2639 63.6437 25.7316 64.4788 26.0997C65.3139 26.4677 66.5209 27.064 68.0999 27.8886C67.9218 29.6805 67.4733 31.4188 66.7544 33.1036C66.0355 34.7884 64.785 37.0316 63.003 39.8333Z" stroke="#0D99FF" stroke-width="0.5" stroke-linejoin="bevel"/>
<mask id="mask6_325_4" style="mask-type:alpha" maskUnits="userSpaceOnUse" x="0" y="24" width="9" height="16">
<path d="M8.10546 24.6965C7.06865 28.0254 6.42863 30.5482 6.18529 32.265C5.94194 33.9817 5.86679 36.5044 5.95991 39.8333C4.17772 37.0316 2.92717 34.7884 2.20819 33.1036C1.48926 31.4189 1.04069 29.6805 0.862549 27.8886C2.44171 27.064 3.64885 26.4677 4.48398 26.0997C5.31916 25.7316 6.5263 25.2639 8.10546 24.6965Z" fill="white"/>
</mask>
<g mask="url(#mask6_325_4)">
<path fill-rule="evenodd" clip-rule="evenodd" d="M-1.94556 42.6414H10.9136V21.8884H-1.94556V42.6414Z" fill="#0D99FF"/>
</g>
<path fill-rule="evenodd" clip-rule="evenodd" d="M5.95992 39.8333C5.86684 36.5044 5.94196 33.9816 6.1853 32.2649C6.42864 30.5482 7.0687 28.0254 8.10549 24.6965C6.52631 25.2639 5.31916 25.7316 4.48402 26.0997C3.64888 26.4677 2.44172 27.064 0.862549 27.8886C1.04069 29.6805 1.48926 31.4188 2.20823 33.1036C2.9272 34.7884 4.17777 37.0316 5.95992 39.8333Z" stroke="#0D99FF" stroke-width="0.5" stroke-linejoin="bevel"/>
<mask id="mask7_325_4" style="mask-type:alpha" maskUnits="userSpaceOnUse" x="23" y="4" width="9" height="11">
<path d="M27.7201 4.88495L31.4082 9.32533C30.4946 10.344 29.8034 11.15 29.3346 11.7433C28.8658 12.3366 28.2015 13.2457 27.342 14.4708C26.5881 13.2723 25.9917 12.3631 25.5529 11.7433C25.1142 11.1235 24.4965 10.3175 23.6997 9.32533C24.4754 8.30026 25.0932 7.53382 25.5529 7.02601C26.0127 6.51819 26.7351 5.80449 27.7201 4.88495Z" fill="white"/>
</mask>
<g mask="url(#mask7_325_4)">
<path fill-rule="evenodd" clip-rule="evenodd" d="M20.8916 17.2789H34.2163V2.07684H20.8916V17.2789Z" fill="#0D99FF"/>
</g>
<path fill-rule="evenodd" clip-rule="evenodd" d="M27.342 14.4708C28.2015 13.2457 28.8658 12.3365 29.3346 11.7432C29.8034 11.15 30.4946 10.344 31.4082 9.3253L27.7201 4.88495C26.7351 5.80448 26.0127 6.51816 25.553 7.02597C25.0932 7.53378 24.4754 8.30023 23.6997 9.3253C24.4965 10.3174 25.1142 11.1234 25.553 11.7432C25.9917 12.3631 26.588 13.2722 27.342 14.4708Z" stroke="#0D99FF" stroke-width="0.5"/>
<mask id="mask8_325_4" style="mask-type:alpha" maskUnits="userSpaceOnUse" x="37" y="4" width="9" height="11">
<path d="M41.2321 4.80176C42.2172 5.7213 42.9396 6.435 43.3995 6.94281C43.8593 7.45063 44.4771 8.21707 45.2529 9.24214C44.456 10.2343 43.8383 11.0403 43.3995 11.6601C42.9607 12.2799 42.3643 13.1891 41.6103 14.3876C40.7507 13.1625 40.0864 12.2534 39.6175 11.6601C39.1486 11.0668 38.4573 10.2608 37.5437 9.24214L41.2321 4.80176Z" fill="white"/>
</mask>
<g mask="url(#mask8_325_4)">
<path fill-rule="evenodd" clip-rule="evenodd" d="M34.7356 17.1958H48.061V1.99377H34.7356V17.1958Z" fill="#0D99FF"/>
</g>
<path fill-rule="evenodd" clip-rule="evenodd" d="M41.6103 14.3876C40.7506 13.1625 40.0864 12.2533 39.6175 11.66C39.1486 11.0668 38.4573 10.2608 37.5437 9.24211L41.2322 4.80176C42.2172 5.72129 42.9397 6.43497 43.3995 6.94278C43.8593 7.45059 44.4771 8.21703 45.2529 9.24211C44.4561 10.2342 43.8383 11.0402 43.3995 11.66C42.9607 12.2799 42.3643 13.1891 41.6103 14.3876Z" stroke="#0D99FF" stroke-width="0.5"/>
<mask id="mask9_325_4" style="mask-type:alpha" maskUnits="userSpaceOnUse" x="30" y="0" width="5" height="9">
<path d="M34.4833 0.796509L32.0775 8.50567L30.2058 6.1794L34.4833 0.796509Z" fill="white"/>
</mask>
<g mask="url(#mask9_325_4)">
<path fill-rule="evenodd" clip-rule="evenodd" d="M27.3977 11.3137H37.2913V-2.0116H27.3977V11.3137Z" fill="#0D99FF"/>
</g>
<path d="M34.4833 5.90171L32.0775 8.50564L30.2058 6.1794L34.4833 0.796509" stroke="#0D99FF" stroke-width="0.5" stroke-linecap="square" stroke-linejoin="bevel"/>
<mask id="mask10_325_4" style="mask-type:alpha" maskUnits="userSpaceOnUse" x="34" y="0" width="5" height="9">
<path d="M34.4351 0.760681C35.5573 2.0934 36.3906 3.10218 36.9348 3.78707C37.479 4.47191 38.0715 5.25745 38.7124 6.14357L36.8408 8.46985L34.4351 0.760681Z" fill="white"/>
</mask>
<g mask="url(#mask10_325_4)">
<path fill-rule="evenodd" clip-rule="evenodd" d="M31.627 11.278H41.5205V-2.0473H31.627V11.278Z" fill="#0D99FF"/>
</g>
<path fill-rule="evenodd" clip-rule="evenodd" d="M34.4825 1.02905L38.356 6.13843L36.8266 8.03932L34.4838 5.48713L32.092 8.0759L30.5623 6.17462L34.4825 1.02905Z" fill="#0D99FF" stroke="#0D99FF"/>
</svg>
